<svg width="197" height="159" viewBox="0 0 197 159" fill="none" xmlns="http://www.w3.org/2000/svg">
<g clip-path="url(#clip0_170_1840)">
<path d="M124.213 21.6626C122.352 25.3196 118.927 28.0421 115.341 30.2582C111.536 32.6006 107.446 34.4966 103.16 35.9047C102.57 36.1006 101.974 36.288 101.378 36.4643H75.8715C75.7063 36.2852 75.547 36.0978 75.3937 35.9047C73.7922 33.8957 72.9339 31.3523 73.2553 28.8592C73.6771 25.591 76.2933 22.5859 79.688 21.8892C83.0829 21.1953 86.9525 23.1175 87.9819 26.2626C88.5512 20.1992 89.2059 13.8811 92.6037 8.71591C95.68 4.04034 101.013 0.693859 106.788 0.0950731C110.184 -0.240535 113.611 0.354712 116.662 1.81027C116.942 1.94458 117.22 2.08448 117.491 2.22998C119.322 3.21489 120.938 4.52265 122.251 6.08292C125.853 10.4087 126.735 16.696 124.213 21.6626Z" fill="#F2F2F2"/>
<path d="M117.491 2.2299C117.498 2.30334 117.485 2.37728 117.453 2.44448C117.421 2.51168 117.371 2.56983 117.308 2.61325C105.756 11.5375 96.6197 22.9517 90.66 35.9046C90.5714 36.0893 90.486 36.2768 90.4034 36.4642H89.2295C89.312 36.2768 89.3947 36.0893 89.4802 35.9046C90.5981 33.4311 91.8339 31.008 93.1876 28.6352C96.1176 23.5123 99.565 18.6713 103.481 14.1804C107.397 9.68408 111.77 5.56499 116.538 1.88295C116.576 1.85374 116.618 1.82929 116.662 1.8102C116.745 1.77633 116.835 1.76059 116.925 1.76417C117.015 1.76774 117.104 1.79054 117.183 1.83085C117.263 1.87117 117.332 1.92798 117.385 1.99706C117.438 2.06614 117.475 2.14572 117.491 2.2299V2.2299Z" fill="white"/>
<path d="M117.978 35.9043H5.60394C4.63602 35.9033 3.68451 36.1415 2.84316 36.5954C2.64164 36.7039 2.44759 36.8245 2.2622 36.9564C1.56021 37.4501 0.989923 38.093 0.597072 38.8335C0.20422 39.574 -0.000268767 40.3916 2.65116e-07 41.2206V96.6223C0.00132091 98.0319 0.592158 99.3834 1.64282 100.38C2.69347 101.377 4.11809 101.937 5.60394 101.939H117.978C119.464 101.937 120.888 101.377 121.939 100.38C122.989 99.3834 123.58 98.0319 123.582 96.6223V41.2206C123.58 39.811 122.989 38.4596 121.939 37.4628C120.888 36.4661 119.464 35.9056 117.978 35.9043V35.9043ZM122.992 96.6223C122.99 97.8833 122.461 99.0921 121.521 99.9838C120.581 100.875 119.307 101.377 117.978 101.379H5.60394C4.27471 101.377 3.00046 100.875 2.06055 99.9838C1.12064 99.0921 0.59177 97.8833 0.589889 96.6223V41.2206C0.594077 40.2154 0.932013 39.2369 1.5557 38.4242C2.17939 37.6115 3.05713 37.0059 4.06427 36.6934C4.1056 36.6822 4.1439 36.6682 4.18524 36.657C4.64595 36.5285 5.12374 36.4635 5.60394 36.4639H117.978C119.307 36.4657 120.581 36.9674 121.521 37.8591C122.461 38.7508 122.99 39.9596 122.992 41.2206V96.6223Z" fill="#3F3D56"/>
<path d="M158.449 108.171C158.837 107.931 159.165 107.614 159.41 107.241C159.654 106.867 159.81 106.448 159.865 106.012C159.92 105.575 159.874 105.133 159.729 104.715C159.585 104.298 159.346 103.915 159.028 103.595L160.79 83.6699L155.745 84.1964L154.363 103.589C153.831 104.13 153.527 104.838 153.508 105.577C153.489 106.317 153.757 107.037 154.261 107.602C154.764 108.167 155.469 108.537 156.241 108.642C157.013 108.747 157.799 108.579 158.449 108.171V108.171Z" fill="#FFB8B8"/>
<path d="M140.492 155.697L136.876 155.696L135.156 142.465L140.493 142.465L140.492 155.697Z" fill="#FFB8B8"/>
<path d="M134.294 154.716H141.268V158.881H129.903C129.903 158.334 130.017 157.793 130.238 157.287C130.458 156.782 130.782 156.323 131.189 155.936C131.597 155.549 132.081 155.242 132.614 155.033C133.147 154.824 133.718 154.716 134.294 154.716Z" fill="#2F2E41"/>
<path d="M166.154 155.697L162.538 155.696L160.817 142.465L166.154 142.465L166.154 155.697Z" fill="#FFB8B8"/>
<path d="M159.954 154.716H166.928V158.881H155.563C155.563 157.777 156.026 156.717 156.85 155.936C157.673 155.155 158.79 154.716 159.954 154.716V154.716Z" fill="#2F2E41"/>
<path d="M140.554 147.501C140.515 147.501 140.476 147.5 140.436 147.497L135.318 147.108C135.115 147.093 134.918 147.038 134.738 146.946C134.559 146.855 134.401 146.729 134.275 146.577C134.15 146.425 134.059 146.25 134.008 146.063C133.957 145.876 133.947 145.681 133.98 145.49L141.739 99.9603L142.259 93.5384C142.282 93.2382 142.407 92.9531 142.615 92.7261C142.824 92.499 143.104 92.3421 143.414 92.279L151.219 90.6594C151.506 90.5986 151.805 90.6211 152.079 90.7239C152.352 90.8267 152.586 91.0052 152.751 91.236L154.654 93.8748C155.401 94.9006 156.213 95.8825 157.086 96.8152C158.436 98.2741 160.732 101.513 160.938 106.814C160.993 108.556 161.184 110.291 161.508 112.006L167.792 144.116C167.823 144.305 167.814 144.497 167.765 144.682C167.715 144.867 167.627 145.04 167.504 145.191C167.381 145.342 167.227 145.468 167.052 145.56C166.876 145.653 166.682 145.71 166.482 145.729L161.631 146.078C161.284 146.111 160.936 146.025 160.649 145.836C160.363 145.647 160.156 145.368 160.067 145.048L151.461 114.689C151.445 114.63 151.408 114.577 151.356 114.54C151.304 114.502 151.241 114.482 151.176 114.482C151.111 114.482 151.048 114.503 150.997 114.54C150.945 114.578 150.908 114.63 150.892 114.69L141.979 146.462C141.895 146.76 141.71 147.023 141.452 147.211C141.195 147.399 140.879 147.501 140.554 147.501Z" fill="#2F2E41"/>
<path d="M154.163 70.0259C158.164 70.0259 161.407 66.9491 161.407 63.1536C161.407 59.3581 158.164 56.2812 154.163 56.2812C150.162 56.2812 146.919 59.3581 146.919 63.1536C146.919 66.9491 150.162 70.0259 154.163 70.0259Z" fill="#FFB8B8"/>
<path d="M141.886 94.5713L141.736 84.7573C141.184 78.4806 144.114 75.1849 146.669 73.5271C147.328 73.1051 148.071 72.8144 148.852 72.6726C149.633 72.5308 150.436 72.5409 151.212 72.7022L156.914 73.8714C157.707 74.0355 158.458 74.3506 159.12 74.7978C159.782 75.2449 160.341 75.8147 160.764 76.4727C161.169 77.0936 161.434 77.7868 161.545 78.5092C161.655 79.2316 161.607 79.9678 161.405 80.672C161.009 81.9901 160.13 83.1312 158.927 83.8903C154.029 87.1709 153.684 92.6815 153.681 92.737L153.675 92.851L141.886 94.5713Z" fill="#6C63FF"/>
<path d="M159.727 87.2739H154.713C154.361 87.2736 154.024 87.1408 153.775 86.9047C153.526 86.6687 153.386 86.3486 153.386 86.0148V77.7605C153.386 76.7958 153.79 75.8706 154.509 75.1884C155.228 74.5063 156.203 74.123 157.22 74.123C158.237 74.123 159.212 74.5063 159.931 75.1884C160.65 75.8706 161.054 76.7958 161.054 77.7605V86.0148C161.054 86.3486 160.914 86.6687 160.665 86.9047C160.416 87.1408 160.079 87.2736 159.727 87.2739V87.2739Z" fill="#6C63FF"/>
<path d="M126.062 88.8335C125.767 89.168 125.4 89.4393 124.986 89.6296C124.572 89.8198 124.121 89.9247 123.661 89.9374C123.201 89.95 122.744 89.87 122.319 89.7028C121.894 89.5355 121.512 89.2848 121.197 88.9671C118.34 86.1246 123.01 81.8564 125.878 84.705C125.979 84.8032 126.073 84.908 126.159 85.0184L140.619 84.6774L142.345 81.6826L147.65 83.6366C146.631 85.1348 145.462 91.015 142.799 90.7288C142.449 90.7377 126.419 88.8577 126.062 88.8335Z" fill="#FFB8B8"/>
<path d="M145.407 86.5668L141.365 83.7525C141.081 83.5547 140.892 83.2583 140.839 82.9284C140.785 82.5984 140.872 82.2618 141.08 81.9925L146.228 75.3379C146.526 74.9528 146.901 74.6271 147.331 74.3795C147.762 74.1319 148.24 73.9671 148.737 73.8946C149.235 73.8222 149.743 73.8434 150.232 73.9572C150.721 74.0709 151.182 74.2749 151.587 74.5575C151.993 74.8401 152.337 75.1958 152.598 75.6043C152.859 76.0128 153.032 76.466 153.109 76.9382C153.185 77.4104 153.163 77.8921 153.043 78.3561C152.923 78.82 152.708 79.257 152.41 79.6421L147.262 86.2967C147.054 86.5656 146.741 86.7451 146.393 86.7957C146.046 86.8463 145.691 86.764 145.407 86.5668V86.5668Z" fill="#6C63FF"/>
<path d="M155.615 66.7255C155.848 66.2628 155.93 65.744 155.848 65.2368C155.765 64.7297 155.524 64.2578 155.155 63.883C153.792 62.5794 151.663 63.4489 149.821 63.3213C146.753 63.1087 144.664 59.6381 145.579 56.8523C146.495 54.0665 149.75 52.3378 152.82 52.5211C155.89 52.7044 158.67 54.506 160.52 56.8371C161.787 54.9034 164.898 54.6779 166.906 55.9244C168.914 57.1709 169.953 59.4489 170.382 61.6887C170.812 63.9285 170.742 66.2303 171.103 68.4809C171.98 73.9363 175.691 79.0734 181.062 81.1941C186.432 83.3147 193.304 81.9518 196.817 77.5536C197.501 82.8836 196.302 88.278 193.41 92.8929C190.517 97.5079 186.093 101.083 180.831 103.059C177.921 104.152 174.707 104.732 171.643 104.125C166.697 103.144 162.85 99.1311 161.173 94.6091C159.497 90.087 159.698 85.1251 160.512 80.3941C161.013 77.4802 161.569 74.0291 159.329 71.9795C158.7 71.483 157.96 71.1291 157.165 70.9447C156.744 70.8246 156.357 70.6148 156.034 70.3314C155.711 70.0479 155.46 69.6982 155.301 69.309C155.142 68.9198 155.079 68.5013 155.116 68.0854C155.154 67.6694 155.291 67.2671 155.517 66.909C155.553 66.8481 155.586 66.7869 155.615 66.7255Z" fill="#2F2E41"/>
<path d="M181.62 159H114.373C114.295 159 114.22 158.971 114.165 158.918C114.109 158.866 114.078 158.794 114.078 158.72C114.078 158.646 114.109 158.575 114.165 158.522C114.22 158.47 114.295 158.44 114.373 158.44H181.62C181.699 158.44 181.774 158.47 181.829 158.522C181.884 158.575 181.915 158.646 181.915 158.72C181.915 158.794 181.884 158.866 181.829 158.918C181.774 158.971 181.699 159 181.62 159Z" fill="#3F3D56"/>
<path d="M61.6684 68.8987C61.2208 68.8985 60.7805 68.7908 60.3887 68.5857L1.682 37.9321C1.61348 37.8963 1.56275 37.8362 1.54096 37.7649C1.51918 37.6937 1.52813 37.6171 1.56585 37.5521C1.60357 37.4871 1.66697 37.439 1.74209 37.4183C1.81721 37.3976 1.89791 37.4061 1.96643 37.4419L60.6731 68.0955C60.9725 68.2523 61.3083 68.3359 61.6503 68.3388C61.9923 68.3416 62.3297 68.2636 62.6319 68.1119L122.305 38.2483C122.339 38.231 122.377 38.2204 122.415 38.2169C122.454 38.2134 122.493 38.2172 122.53 38.2281C122.567 38.2389 122.601 38.2566 122.631 38.28C122.661 38.3035 122.686 38.3323 122.704 38.3649C122.722 38.3974 122.733 38.433 122.737 38.4696C122.74 38.5063 122.736 38.5432 122.725 38.5783C122.713 38.6135 122.695 38.6461 122.67 38.6744C122.645 38.7027 122.614 38.726 122.58 38.7431L62.9071 68.6067C62.5254 68.7982 62.1002 68.8985 61.6684 68.8987V68.8987Z" fill="#3F3D56"/>
<path d="M18.7489 87.9486H10.4904C9.86462 87.9486 9.26447 87.7127 8.82196 87.293C8.37946 86.8732 8.13086 86.3038 8.13086 85.7101C8.13086 85.1165 8.37946 84.5471 8.82196 84.1273C9.26447 83.7075 9.86462 83.4717 10.4904 83.4717H18.7489C19.3746 83.4717 19.9748 83.7075 20.4173 84.1273C20.8598 84.5471 21.1084 85.1165 21.1084 85.7101C21.1084 86.3038 20.8598 86.8732 20.4173 87.293C19.9748 87.7127 19.3746 87.9486 18.7489 87.9486Z" fill="#3F3D56"/>
<path d="M28.482 95.5033H10.4904C9.86462 95.5033 9.26447 95.2674 8.82196 94.8476C8.37946 94.4279 8.13086 93.8585 8.13086 93.2648C8.13086 92.6711 8.37946 92.1018 8.82196 91.682C9.26447 91.2622 9.86462 91.0264 10.4904 91.0264H28.482C29.1078 91.0264 29.708 91.2622 30.1505 91.682C30.593 92.1018 30.8416 92.6711 30.8416 93.2648C30.8416 93.8585 30.593 94.4279 30.1505 94.8476C29.708 95.2674 29.1078 95.5033 28.482 95.5033Z" fill="#3F3D56"/>
<path d="M61.6443 77.8754C66.8569 77.8754 71.0825 73.8666 71.0825 68.9216C71.0825 63.9765 66.8569 59.9678 61.6443 59.9678C56.4317 59.9678 52.2061 63.9765 52.2061 68.9216C52.2061 73.8666 56.4317 77.8754 61.6443 77.8754Z" fill="#6C63FF"/>
</g>
<defs>
<clipPath id="clip0_170_1840">
<rect width="197" height="159" fill="white"/>
</clipPath>
</defs>
</svg>
